#!OML:ASF H:\Male1\Project 1\Capture day 1\Session 1\Male1.ASF
:FULLY-SPECIFIED
:DEGREES
375
root 16.427 15.5049 -0.326831 -47.7875 -93.7613 46.2542
lowerback 7.32667 3.50212 -2.03618
upperback 1.69932 4.31397 -3.33863
thorax -2.23446 2.11371 -2.69664
lowerneck -12.5136 -1.30061 6.11676
upperneck -0.955993 -2.87697 3.38402
head 1.79339 -1.4091 -0.123131
rclavicle 7.79236e-014 3.02153e-014
rhumerus 62.0421 1.31061 -37.3621
rradius 66.8462
rwrist -0.055433
rhand -36.4084 23.5899
rfingers 7.12502
rthumb -9.50388 -6.17582
lclavicle 7.79236e-014 3.02153e-014
lhumerus -40.0578 -15.6191 81.5102
lradius 35.2895
lwrist 4.68616
lhand -18.4551 10.0049
lfingers 7.12502
lthumb 7.83108 39.8399
rfemur 0.837801 14.9396 21.8404
rtibia 16.8453
rfoot -31.5019 -32.0846
rtoes -12.4538
lfemur -2.70849 -16.9877 -19.6151
ltibia 24.385
lfoot -24.6432 27.2659
ltoes -2.69637
376
root 16.4309 15.5118 -0.31336 -53.7359 -93.4567 52.331
lowerback 7.52001 3.42804 -1.94455
upperback 1.62712 4.20474 -3.49219
thorax -2.40148 2.05727 -2.91288
lowerneck -12.6506 -1.32906 6.03847
upperneck -0.81792 -2.93698 3.73581
head 1.8697 -1.42323 -0.00369625
rclavicle 4.29375e-014 3.18055e-015
rhumerus 63.1649 -1.14579 -38.3094
rradius 63.6859
rwrist -0.0112978
rhand -36.2422 24.527
rfingers 7.12502
rthumb -9.34355 -5.24588
lclavicle 4.29375e-014 3.18055e-015
lhumerus -40.1984 -16.0387 81.4397
lradius 36.4118
lwrist 5.01678
lhand -18.4157 10.184
lfingers 7.12502
lthumb 7.86914 40.0176
rfemur 0.747708 14.487 21.7175
rtibia 16.8168
rfoot -31.2232 -32.0924
rtoes -12.6421
lfemur -2.95782 -17.2414 -19.6008
ltibia 24.4007
lfoot -24.3657 27.1768
ltoes -3.01999
377
root 16.4304 15.5173 -0.300425 -62.2445 -93.1481 60.9209
lowerback 7.6568 3.35747 -1.93301
upperback 1.57769 4.0996 -3.58845
thorax -2.5243 2.00359 -3.02062
lowerneck -12.6642 -1.38325 6.04502
upperneck -0.772172 -3.02105 3.90992
head 1.88912 -1.4586 0.0458648
rclavicle 4.31363e-014 -5.08889e-014
rhumerus 63.9543 -3.67387 -38.6711
rradius 60.2999
rwrist 0.190742
rhand -36.2052 23.8523
rfingers 7.12502
rthumb -9.30778 -5.92224
lclavicle 4.31363e-014 -5.08889e-014
lhumerus -40.3914 -16.343 81.4052
lradius 37.5402
lwrist 5.30827
lhand -18.9993 6.66453
lfingers 7.12502
lthumb 7.30579 36.5184
rfemur 0.722341 13.9762 21.6184
rtibia 16.8425
rfoot -31.1738 -32.0809
rtoes -12.6114
lfemur -3.12573 -17.6268 -19.6195
ltibia 24.3926
lfoot -24.1381 27.0807
ltoes -3.3796
378
root 16.4229 15.5195 -0.287401 -70.9457 -92.9632 69.6407
lowerback 7.70002 3.3284 -1.93469
upperback 1.60174 4.05598 -3.65058
thorax -2.52058 1.98101 -3.08181
lowerneck -12.7403 -1.46813 5.99294
upperneck -0.655927 -3.1412 4.01388
head 1.94301 -1.50946 0.0796286
rclavicle 1.31198e-014 -3.02153e-014
rhumerus 64.4682 -6.20621 -38.9296
rradius 56.9799
rwrist 0.549681
rhand -36.0389 24.1334
rfingers 7.12502
rthumb -9.14732 -5.64822
lclavicle 1.31198e-014 -3.02153e-014
lhumerus -40.598 -16.6811 81.4662
lradius 38.6568
lwrist 5.97887
lhand -18.4906 9.04336
lfingers 7.12502
lthumb 7.79687 38.8796
rfemur 0.80684 13.4614 21.5495
rtibia 16.8378
rfoot -31.4217 -31.8771
rtoes -11.9731
lfemur -3.16417 -18.046 -19.6688
ltibia 24.3938
lfoot -24.1252 26.9696
ltoes -3.14404
379
root 16.4216 15.5253 -0.279639 -86.8062 -92.9054 85.5316
lowerback 7.93306 3.16851 -1.86709
upperback 1.56833 3.83515 -3.7036
thorax -2.68471 1.86953 -3.16981
lowerneck -12.8484 -1.50589 5.79653
upperneck -0.453915 -3.1934 4.31536
head 2.03869 -1.51672 0.203725
rclavicle 2.68359e-014 6.36111e-015
rhumerus 64.5763 -8.5758 -39.0873
rradius 53.8349
rwrist 0.715061
rhand -36.1876 23.6751
rfingers 7.12502
rthumb -9.29083 -6.10015
lclavicle 2.68359e-014 6.36111e-015
lhumerus -40.8786 -16.9679 81.4669
lradius 39.7148
lwrist 6.60746
lhand -19.1106 8.83579
lfingers 7.12502
lthumb 7.19838 38.6934
rfemur 0.945843 12.9462 21.6265
rtibia 16.7575
rfoot -31.8287 -31.9525
rtoes -11.3887
lfemur -3.3326 -18.5921 -19.5646
ltibia 24.4417
lfoot -23.9486 26.7926
ltoes -3.16826
380
root 16.4145 15.5321 -0.271482 -98.6762 -93.277 97.3695
lowerback 8.1033 3.05318 -1.60664
upperback 1.53988 3.69921 -3.68136
thorax -2.79888 1.80067 -3.29052
lowerneck -12.9678 -1.50929 5.65465
upperneck -0.199085 -3.20853 4.54908
head 2.1533 -1.50451 0.298879
rclavicle -1.21259e-014 2.38542e-014
rhumerus 64.1948 -10.7974 -38.9377
rradius 51.1053
rwrist 0.448362
rhand -36.0484 23.1733
rfingers 7.12502
rthumb -9.15654 -6.60793
lclavicle -1.21259e-014 2.38542e-014
lhumerus -41.1894 -17.0997 81.3981
lradius 40.7142
lwrist 6.95557
lhand -19.5024 8.15297
lfingers 7.12502
lthumb 6.82017 38.0231
rfemur 1.11733 12.5201 21.9749
rtibia 16.7104
rfoot -31.9124 -32.1368
rtoes -11.3783
lfemur -3.36863 -19.2122 -19.2575
ltibia 24.4722
lfoot -23.8667 26.8124
ltoes -3.35071
381
root 16.4048 15.5369 -0.263727 -107.999 -93.6863 106.668
lowerback 8.1222 2.93438 -1.4639
upperback 1.5731 3.55672 -3.65182
thorax -2.7742 1.72977 -3.32498
lowerneck -13.2085 -1.52202 5.54892
upperneck 0.182732 -3.24645 4.58737
head 2.32955 -1.50166 0.321922
rclavicle -3.10104e-014 -4.45278e-014
rhumerus 63.5918 -12.8961 -39.0974
rradius 48.7949
rwrist 0.404925
rhand -35.8969 22.6688
rfingers 7.12502
rthumb -9.01032 -7.11873
lclavicle -3.10104e-014 -4.45278e-014
lhumerus -41.3801 -16.9958 81.278
lradius 41.6036
lwrist 7.23782
lhand -19.8588 7.66195
lfingers 7.12502
lthumb 6.47608 37.5429
rfemur 1.20933 12.0232 22.2312
rtibia 16.8108
rfoot -32.008 -32.1789
rtoes -11.453
lfemur -3.33471 -20.0217 -19.0589
ltibia 24.4184
lfoot -23.9129 26.9069
ltoes -3.14883
382
root 16.3943 15.5387 -0.259385 -119.771 -93.9085 118.453
lowerback 8.06962 2.81915 -1.79016
upperback 1.62282 3.37513 -3.69537
thorax -2.71814 1.64057 -3.16437
lowerneck -13.3307 -1.57873 5.37852
upperneck 0.433701 -3.31961 4.68302
head 2.44242 -1.52202 0.374916
rclavicle -2.64384e-014 -1.59028e-015
rhumerus 62.6314 -14.8691 -39.2587
rradius 46.745
rwrist 0.480403
rhand -36.1666 21.7791
rfingers 7.12502
rthumb -9.27055 -7.99703
lclavicle -2.64384e-014 -1.59028e-015
lhumerus -41.4834 -16.838 81.1738
lradius 42.3392
lwrist 7.48789
lhand -20.4322 7.75837
lfingers 7.12502
lthumb 5.92252 37.6556
rfemur 1.23879 11.4236 22.0838
rtibia 17.025
rfoot -32.1965 -32.2139
rtoes -11.6768
lfemur -3.32265 -20.8681 -19.2418
ltibia 24.3057
lfoot -23.8588 26.9482
ltoes -3.05171
383
root 16.3852 15.5371 -0.25518 -133.783 -94.0837 132.461
lowerback 8.12522 2.71685 -2.47988
upperback 1.62218 3.16693 -3.80679
thorax -2.78966 1.53813 -2.8766
lowerneck -13.3093 -1.59771 5.24326
upperneck 0.535079 -3.33183 4.80862
head 2.47825 -1.51955 0.437902
rclavicle -1.51076e-014 -7.95139e-015
rhumerus 61.11 -16.6042 -39.2033
rradius 45.3761
rwrist 0.06863
rhand -36.6413 20.4577
rfingers 7.12502
rthumb -9.72856 -9.29757
lclavicle -1.51076e-014 -7.95139e-015
lhumerus -41.7018 -16.6199 81.0822
lradius 43.0311
lwrist 7.78405
lhand -20.8553 7.84139
lfingers 7.12502
lthumb 5.51403 37.7496
rfemur 1.30166 10.5825 21.5431
rtibia 17.2327
rfoot -32.1965 -32.1651
rtoes -11.9839
lfemur -3.32721 -21.5588 -19.7701
ltibia 24.2075
lfoot -23.5423 26.9234
ltoes -3.51593
384
root 16.3778 15.5338 -0.252117 -143.469 -94.5396 142.085
lowerback 8.32318 2.59341 -2.99085
upperback 1.59378 2.94004 -3.85766
thorax -2.95939 1.42697 -2.63179
lowerneck -13.4429 -1.55794 5.07034
upperneck 0.761793 -3.28081 4.9644
head 2.58763 -1.47742 0.519093
rclavicle -6.22196e-014 4.6118e-014
rhumerus 59.0612 -18.0562 -39.2071
rradius 45.1411
rwrist -0.766666
rhand -37.0819 19.0849
rfingers 7.12502
rthumb -10.1536 -10.65
lclavicle -6.22196e-014 4.6118e-014
lhumerus -41.9742 -16.2196 80.935
lradius 43.5861
lwrist 8.02059
lhand -21.1735 7.86237
lfingers 7.12502
lthumb 5.20685 37.7784
rfemur 1.40584 9.73753 21.2279
rtibia 17.4388
rfoot -32.248 -32.0236
rtoes -12.0035
lfemur -3.29771 -22.0686 -20.0598
ltibia 24.1176
lfoot -23.2568 26.7181
ltoes -3.74125
385
root 16.3687 15.5321 -0.253435 -145.372 -95.2134 143.911
lowerback 8.47403 2.5651 -3.10726
upperback 1.57306 2.88707 -3.77208
thorax -3.07616 1.40283 -2.48055
lowerneck -13.634 -1.61694 4.9364
upperneck 1.02309 -3.37756 5.16765
head 2.72056 -1.50491 0.599627
rclavicle 5.00937e-014 -7.15625e-014
rhumerus 56.3243 -19.3917 -39.0419
rradius 45.8898
rwrist -1.86182
rhand -37.6003 17.7511
rfingers 7.12502
rthumb -10.6537 -11.9588
lclavicle 5.00937e-014 -7.15625e-014
lhumerus -42.16 -16.006 80.8218
lradius 43.959
lwrist 8.0686
lhand -21.4446 8.00005
lfingers 7.12502
lthumb 4.94505 37.9223
rfemur 1.49962 9.23124 21.5412
rtibia 17.6233
rfoot -32.6162 -31.936
rtoes -11.5567
lfemur -3.28127 -22.4125 -19.7452
ltibia 24.0755
lfoot -23.0926 26.406
ltoes -3.78766
